<svg xmlns="http://www.w3.org/2000/svg" viewBox="0 0 461.62 424.57"><defs><style>.cls-1{fill:#31636b;}.cls-2{fill:#bd4913;}</style></defs><g id="Ebene_2" data-name="Ebene 2"><g id="Ebene_1-2" data-name="Ebene 1"><g id="person"><path class="cls-1" d="M221.06,156.8c-.29-.84-.55-1.66-.78-2.42A24.87,24.87,0,0,0,221.06,156.8Z"/><path class="cls-1" d="M400.83,157.44c-.68,3.25-.79,10.27,0,12.6.89,2.79,3.7,1.49,3.84-2.47.2-6.84,2.8-7.58,4.24-7.6s4.59.28,4.64,4.42a63.69,63.69,0,0,1-1.06,10.12c4,1,5.54-6.73,6.22-10.7.61-3.57,2-9.29,2.28-15.6s-.56-12.57-1.48-14.73-4.58-6.9-8.57-9.74-14.51-10.4-14.51-10.4.46,1.32.17,7.62a38.7,38.7,0,0,1-1.7,8.29,8.82,8.82,0,0,1-2.93,4.36s8.86,3.86,11,5.27,3.81,2.66,3.11,4.83S401.52,154.2,400.83,157.44Z"/><path class="cls-1" d="M409.75,380.88c-8,.08-10.46-1.57-12.26-2.27s-6.3-5.21-7.76-6.88c-.16-.18-.37-.39-.6-.61l-3.35,22.73a11.27,11.27,0,0,1,.26,2s0,.16.08.39c6.38,0,14-.1,20.43-.49,11.87-.74,15.67-4.73,15.39-8.57S417.79,380.79,409.75,380.88Z"/><path class="cls-1" d="M457,45.85c.12.24,1.91,0,4.65-2.09a11.57,11.57,0,0,1-4.1-1.52s-1-.47-.51-3.35,1.58-9.14-.28-14.51-5.81-15.54-18.33-20c0,0-6.18-5-17.45-4.37a6.37,6.37,0,0,1,2.66,1.53c.72.71-7.45-1.12-15,.77,0,0,.9.48,1.74.89-1.53,0-4.61.79-10.08,4.83-9.88,7.31-11.81,12.53-13.09,20.66,0,0-.53,7.09-3.25,9.76,0,0,1.58,2.38,3.24.2,0,0-.82,2.29-4.29,3.29.4.09,2.11,1.56,3.3,1.32a27.24,27.24,0,0,0-3.4,1.64c-.16.17-.35.38-.56.64h0l0,0-.33.44-.11.15-.28.41-.09.14h0a20.07,20.07,0,0,0-2.89,10.88v0c0,.16,0,.33,0,.5s0,.63,0,1,0,.5,0,.76,0,.47,0,.71v0a46.22,46.22,0,0,0,3.57,13.58s-6-8.22-5.41-18.31c0-.06,0-.12,0-.18,0-.38.06-.76.1-1.15,0,0,0-.09,0-.13a21,21,0,0,1,.48-2.64l0-.11c.09-.39.2-.78.32-1.17l.09-.26c.11-.36.24-.73.38-1.1l.08-.21a24.39,24.39,0,0,1,3.05-5.5A10.82,10.82,0,0,0,378,40c-1.52-.78-10.91-4-21.21-3.33-4.21,1.05-17.64,5.32-29,19.36,0,0,3-8.34,21-18a29.06,29.06,0,0,0-2.8,1c-13.62,5.55-22.54,12.61-33.13,21.12s-20.81,17.39-25.11,19c-2.2.82-4.11,2.75-6,5a10.67,10.67,0,0,0-1.34,6.28c.42,5.94-2.74,24.69,8.59,39.86,0,0-5.43-3.36-8.23-12.15,0,0-1.18,7.57,1.22,13.31s6.42,11.26,7,15.94c0,0-5.18-10.41-8.38-14.85-1.89-2.61-1.5-10.84-1.38-16.06.11-4.63-1.85-17.64-.54-28.58-.77.94-1.56,1.86-2.38,2.69-.58.59-1.19,1.16-1.81,1.72a46.72,46.72,0,0,0-4,21s-2.31-2.06,1-18.46a91,91,0,0,0-7.21,6c-2.84,2.91-11.28,10.81-12.23,11.18a75.46,75.46,0,0,0-7.15,4.87c-.71.61-7.48,6.69-8.92,7.54s-9.15,7.42-16.19,16.55c-1.92,2.5-.29,6.31-.07,10.26a14.94,14.94,0,0,0,.4,2.55h0l.18.62s0,0,0,.06a2.76,2.76,0,0,1,.08.27c.07.21.13.41.2.63s.11.35.17.53l.27.83.06.16,0,0a35.69,35.69,0,0,0,3.46,7.56c3,4.57,12.49,14.18,17.93,19.79l.11.11.85.89.26.27c.32.32.61.63.88.92,4.61,4.87,18.45,19.35,27.35,20.94s18.2-.5,22-3.71l-.09.1-.13.16,0,0-.21.23,0,0-.25.25-.05.05a4,4,0,0,1-.36.34l0,0-.4.35-.07.06q-.48.4-1.08.84l-.1.06a15.29,15.29,0,0,1-1.39.89l-.1.05c-.24.14-.48.27-.74.4l-.09,0c-.28.15-.58.29-.9.43l-.07,0-.89.36-.16,0a19.64,19.64,0,0,1-2.16.66l-.21,0c-.39.1-.79.18-1.2.26a28.06,28.06,0,0,1-10.42-.24c-15.63-3.07-24.47-16.59-32.06-24.37s-11.42-11.64-15.05-16.16-5.61-10.71-6.52-14.27A37.75,37.75,0,0,0,204.48,174a55,55,0,0,0-2,23.53,37,37,0,0,1,12.92-11.18,46.83,46.83,0,0,0-12.69,13.29,11.23,11.23,0,0,1,.07,2.09,13.11,13.11,0,0,1-.94,3.38,37.43,37.43,0,0,1,21.92-10.81s-17.13,5.89-23.53,14.76a4.28,4.28,0,0,0-.23,1.16,8.49,8.49,0,0,1-.64,2.87c4,.35,9.85,2.6,17.47,6.31,11,5.33,28.3,7.11,33.12,6.78-20.79,2.82-38.81-7.3-45.56-9.89a11.46,11.46,0,0,0-6.26-.76c-.19.29-.38.58-.58.84-1.43,1.81-1.4,3.79-2.1,5.6s-6.05,6.72-8.69,11.61-8.59,21.33-8.93,23.31a3.85,3.85,0,0,0,1.09,3.5l.11.08h0l.43.29.16.1.36.24.26.17.35.23.31.21.33.21c.14.09.28.19.44.28l.18.13c7.35,4.77,23.22,14.67,33.84,18.32,0,0-10-.25-24.84-10.77a140.14,140.14,0,0,0-12.69-8.28c-2.76,3.7-8.15,10.88-9.6,12.55a6.05,6.05,0,0,0,1.81-.69,41.41,41.41,0,0,0,6-5.1s-.68,3.72-5.46,6.18a16.6,16.6,0,0,1-7.44,1.32,130,130,0,0,1-16,1.15c-5.57.06-19.62-.86-27.34,1.38C113,280.47,99.5,287,94.18,290.09l.16-.26c-1.28-2.68-4.69-1.57-4.68-.67s-2.52.21-5.74,1.69-3.23,1.11-9,1c-5-.11-5.38,1.79-6.33,3a14.79,14.79,0,0,0-.57,8.32c1.15,6.56,2.73,10.32,2.13,12.93,0,0-3-9.15-4.38-12.73-.74-1.91-.26-4.89.34-7.28a21.67,21.67,0,0,1-6.8.42,19.21,19.21,0,0,0-8.27,1.17,7.35,7.35,0,0,1-2.57.46c.79-1.84-.51-3.89-2.7-5.44,0,0-9.79-6.55-11.77-7.25-2.17-.69-6.68-1.37-9.16,1.9-1.61,2.12-5.85,8.16-7.27,10.16S14.75,302,15,304.92s-.28,7.74-2.23,9.92-3.56,3.28-8.14,12.69-5,21.11-4.36,29.74,4.3,14.17,10.23,13.92S19,358,20.53,353.63s5.86-6.72,7.29-8,5.73-2.4,9-4.06A11.34,11.34,0,0,0,40,339.15a10.54,10.54,0,0,0,1.41-1.86l0-.09,0,0a9.63,9.63,0,0,1,3.8-2.37,17.7,17.7,0,0,0-3,2.81c.8.45,2.1,1.22,3.54,2.19,6.34,3.9,9.18-.1,7.33-4a38.93,38.93,0,0,0-2.78-4.67c.33-.17.64-.35.92-.53,1.44-.92,7-3.14,8.79-3s6.64-1.33,7.54-2.42,5.92-1.15,9.34-.64,8.81-1.72,10-2.81,5.21-.78,7.72-2.06l1.55-.81a3.56,3.56,0,0,0,.49-.89h0a7.12,7.12,0,0,0,.24-.81,1.06,1.06,0,0,0,0-.19,1.46,1.46,0,0,0,.05-.2h0a36.19,36.19,0,0,0-.07-9.35,121,121,0,0,1-.15-13.68c.2,4.26,1.51,8.54,2.06,14.65a78.2,78.2,0,0,1,.19,9.43c6.59-.5,16.79-1.44,25.79-3,14.73-2.5,27.86-3.37,33.44-3.79s9.36.62,11.35,1.68,6.49,1.19,9.91.79,8.06-3.15,10.38-5.15,10.55-7,13-9.32c2.11-2,13.59-9.28,22.13-17.53a213.86,213.86,0,0,0,25,1.71c2.7,0,7.49-6,8.56-7.65s9.34-17.38,10-22.43,2.9-14.06,4.49-16.42c.78-1.14,6-5.87,11.35-12.66C272.45,235,255.14,241,245,240.67c-12.07-.38-37.1-2.65-40.35-3.51,6.36.29,16.39.9,40.33,1.9,19.13.79,36.14-12.92,42.21-18.48,3.77-5.33,7.22-11.61,8.75-18.26.27-.53.48-1,.67-1.47-3.29,24.4-22.15,35.55-20.63,35.71a7.71,7.71,0,0,1,5,2.46c1.82,1.78,5.59-.06,7-.25s8,3.76,10.71,5.53,3.22,4.9,4.46,3.44c.41-.47,1.4-1.91,2.73-3.81a1.88,1.88,0,0,1,.12-.18c1.56-2.24,3.56-5.08,5.68-7.83l0,0,.35-.45h0a48.48,48.48,0,0,1,12-10.62,60.16,60.16,0,0,1,5.48-2.55c-3,2.13-11.08,8.23-15.28,14-3.35,4.59-6.15,8.93-7.72,11.43,5.33,4.23,9.9,7.43,11.38,8.44a39.4,39.4,0,0,1,6.88,6s-2.44-1.55-6.51-3.63c-.36,5.55-1.13,21.5,1.25,32.66,4.93,23.16,11.13,30.12,11.13,30.12-.24.72-1.07,1.57-.22,2.4s.41,4.19.18,5.52.3,5.75,1.64,6.7a11.44,11.44,0,0,1,2.43,3.12c4.22,1.21,8.5,1.5,10.47,0,2.41-1.82,3.93-2.56,9.33-2.35,0,0-6.29.7-8.6,3.52-1.77,2.16-6.07,2-10.22,1a.92.92,0,0,1,0,.52c-.35.84-.56,4.08.53,4.91s1.13,4.79.55,6.35a6.21,6.21,0,0,0,1.14,5.75c1.46,1.78,1.75,6,1.75,6-1.79,1.34-1.62,5.54-2.18,8.9s-2.81,6.63-3.62,8.92-1.6,7.34.46,9.83,8.92,4,18.28,3.89,10.3-1.56,10.3-1.56c3.11-1.35,6.61.77,11.17,1.2.77.07,1.85.14,3.17.19,0-.37.09-.71.14-1a2.56,2.56,0,0,1,1.4-1.94l3.34-27.69a20,20,0,0,1-5.11-4.57,31.86,31.86,0,0,0,4.42,2.52,20.12,20.12,0,0,1,.18-2.9c.78-4.93-2.26-8.85-4.06-8.47s-2.84,3.15-2.84,3.15a13.88,13.88,0,0,1-2.88-.21c-.61-.23-1.71-2.86-2.21-4.05s-.9-6-.92-7.67-3.05-4.65-4-5.24-1-3.47-.89-4.55.93-3.37,1-5.05a24.92,24.92,0,0,0-1.78-9,9.69,9.69,0,0,0-1.47-2.27c-2.68,2.54-6.25,3.94-9.08,3.47a17.65,17.65,0,0,0-10.9,1.56,6.6,6.6,0,0,1-6.35.07c4-.17,4.89-2.58,9-3s8.4.27,11.76-.13c2.14-.25,3.1-1.91,4.1-3.37l-.06,0c-1-7.79-3.46-20.24-4.67-32.11s-1.92-22.65-1.74-28.05,0-11.16,0-13.56-.19-6.24-1.54-9.22-5-4.39-6.06-5.22c-.79-.6-5.56-6.7-8.16-10.06a2.27,2.27,0,0,0,.51-2.33c-.92-1.61-5.28-6.84-10-14.89-3.4-5.73-8.89-11.7-11.77-14.67a27.51,27.51,0,0,1-3.6,2.41l-.73.41-.48.26-.45.23-.57.29-.41.2-1.05.5-.21.1-1,.45-.3.12c-.41.18-.84.36-1.28.53h0a78.44,78.44,0,0,1-9.2,3h0c-.71.18-1.43.37-2.19.55-23.84,5.69-42.15-14.78-42.15-14.78.77.59,1.53,1.15,2.29,1.69l.74.51c.51.36,1,.71,1.51,1l.85.56,1.36.87.87.53,1.3.78.85.49,1.3.71.79.42c.46.25.92.48,1.38.7l.65.32c.63.31,1.26.6,1.87.87l.1,0,1.94.81.54.21,1.33.5.66.23,1.16.4.67.21,1.1.33.65.18,1.08.28.59.15,1.14.25.47.1,1.46.27h.08c.51.09,1,.16,1.5.23l.33,0,1.08.12.45,0,.9.07.47,0,.81,0,.45,0h1.18l.78,0h.32l.92,0h.1q.49,0,1-.09l.21,0,.65-.08.29,0,.5-.08.29-.05.42-.07.27-.06.36-.07.23-.06.31-.07.2,0,.26-.07a10,10,0,0,0,1-.3c-.3,0-.58.06-.87.08a17.24,17.24,0,0,1-11.27-2.71c.44.16.88.31,1.33.44l.24.07q.56.17,1.11.3l.14,0a28,28,0,0,0,10,.48h.06c.88-.11,1.76-.26,2.62-.43h0a39.85,39.85,0,0,0,5.05-1.42l.05,0a47.08,47.08,0,0,0,6.61-2.92h0a56.25,56.25,0,0,0,6.33-3.93c2.52-2.51,5.4-5.27,7.48-7,3.93-3.28,9.19-9.81,11.68-12.54l-2.9-2.25s2.06-8.9,3.06-16.23c1-7,1.38-44.53,1.11-52.62,0,0,2.48,40.1,1.29,52.59S337.4,161,337.4,161s6.41,4.37,9.81,8.29a46.9,46.9,0,0,0,9.38,7.86,23.49,23.49,0,0,1-9-5.95c-2.43-2.73-8.41-6.8-8.41-6.8s.41,21.23-.44,26.46-2.39,10.31-.26,14.28c2,3.76,8.13,7.65,11,11.4,2.27,2.92,25.74,25.44,28.74,27.88,4.36,3.55,5.77,7,7.05,8.44a11.53,11.53,0,0,1,2.47,6.33c0,2,0,10.76,1.81,12.1a10.48,10.48,0,0,0,2.89,1.53,28.09,28.09,0,0,1,.64-4.58,4.57,4.57,0,0,1,.65-1.64c.84-1.27,2.28-1.58,4.15-1.4s3.09,1.08,3.12,3.42a13.78,13.78,0,0,1-.41,3.27c4,.5,4.48-1.73,4.52-4,0-.34,1.37-1.28,1.53-2.17.12-.66-.14-1.11.05-1.74s.59-1.09.64-1.51c.1-1-.49-1.71-.38-2a18.73,18.73,0,0,0,.92-2.7c.23-1.33-1.2-2.29-1.95-3.05a17,17,0,0,0-1.93-1.63c-3.12-2.33-7.29-4.39-7.75-5.7a17.34,17.34,0,0,0-1.75-2.76c-3.05-4.28-9.4-12.33-14.19-18-6.93-8.21-18-27.11-19.89-30.2-1.59-2.59,1.76-8.26,4-16.76,2.79-.51,4.49-2.79,6.43-5.07,2.37-2.79,5.42-9.18,5.86-13a30.79,30.79,0,0,1,5.73-13.74c3.08-3.88,6.36-10.87,6.35-12.31s3.78-5.32,4.24-6.52,2.21-7,1.81-10.58-5.23-17.1-5.62-19.62,2.82-5.67,3.89-6.76a2.14,2.14,0,0,0,.16-2.12c2.63-2,8.15-5.5,14-5.48a21.42,21.42,0,0,1,14.7,5.36c2.06,1.78,4.58,2.11,6.6,0s3.79-4.36,3.64-6.88c0,0,2.89.81,3.6-.64s-.17-3.83-.17-3.83,3,.2,4-.65a5.34,5.34,0,0,0,1.39-4.21,2.7,2.7,0,0,1,.81-2.29s2.9,1.29,4.82,1,3.58-.88,3.56-3.16-.95-9.83.12-11.52,4.5-5,4.92-10.49a7.24,7.24,0,0,0,2.86-.15C458.1,47,457.81,47,457,45.85ZM38.63,307.18l-.06.1a8.83,8.83,0,0,0-.43.8l-.09.19a6.92,6.92,0,0,0-.28.76c0,.08-.06.15-.08.23a5.7,5.7,0,0,0-.17,1c-.32,4,2.26,10,2.26,10s-4.1-2.35-3.83-9.91a8.34,8.34,0,0,1,.15-1.27,3.54,3.54,0,0,1,.09-.38c.06-.27.13-.54.21-.79s.1-.27.16-.4.18-.45.29-.67l.2-.36c.12-.21.25-.41.38-.61a3.3,3.3,0,0,1,.22-.3c.16-.21.32-.41.49-.61l.19-.21a11.32,11.32,0,0,1,1.58-1.38l.13-.08c.23-.17.47-.32.7-.47l.23-.13c.2-.12.4-.24.6-.34l.26-.13.55-.27.25-.11.52-.22.23-.09.46-.17.2-.07.36-.12L45,301l.48-.13S40.81,303.62,38.63,307.18Zm38.63,11.58a38.38,38.38,0,0,0-2.86-9.09c-2-3.94.48-10.93.48-10.93a18.4,18.4,0,0,0,1.31,10.19A15.81,15.81,0,0,1,77.26,318.76Zm293.07,45c-2.12,3.38-6.29,5.95-13,6.62-9.63,1-12.37-4.12-12.52-4.41,2.79,2.47,5.68,3.4,12.5,3S370.33,363.79,370.33,363.79Zm-6.06-19.44c-2.14-.57-7.78-.57-10.69,1.5s-8.89,1.63-8.89,1.63c2.25-.48,3-.39,7.16-3.05C355.79,341.94,363.34,344.08,364.27,344.35Zm-39.43-120,.31-.18-.57.34Zm-13.72,12.34.54-.7-1.13,1.47C310.73,237.15,310.91,236.9,311.12,236.64ZM386.7,43.06a.87.87,0,0,0,.16-.17A.42.42,0,0,1,386.7,43.06Z"/></g><g id="stick"><path class="cls-2" d="M397.8,247.58c1.33,1,3.15,2.24,4.44,3.06l9.86-82.88c.49-4.41-.12-6-2.82-6s-3.34,1.36-4,7.67c-.24,2.36-4.11,36.25-8.7,76.5A3.89,3.89,0,0,0,397.8,247.58Z"/><path class="cls-2" d="M412.05,399.69c-1.86-.46-3.76,1.54-7.88,3.14s-10.31,1.2-12.41.8-3.26-2.06-4.23-3.25a14.19,14.19,0,0,0-2.65-2.31l0-.22-.05,0a5.73,5.73,0,0,1,0-1.8c0-.15,0-.29.05-.43h0a5.1,5.1,0,0,0-.07-1.48l.4-3.32,0,0,2-14.64,12.86-108.13a2.48,2.48,0,0,0-2.29-1.65A3.49,3.49,0,0,0,394,269c-5.1,44.69-10.42,91.29-12.4,108.89l-2.11,16s-1.1.28-1.19,1.11c0,.14,0,.39-.09.7s-.13,1-.22,1.53a23.91,23.91,0,0,1-1.07,6.43c-1.05,2.65-3,6.63-3.12,10.47s4,8.6,9.7,9.56,16,1.92,22.54-1.75,10-8.93,9.8-14.62S413.92,400.15,412.05,399.69Zm.23,12.91-1.95.73a19.66,19.66,0,0,1-.51-2c1.24-.6,2.33-1.15,3.07-1.54h0a23.55,23.55,0,0,1-.61,2.78Zm-9.5,7.66h0a27.64,27.64,0,0,1-3.86,1.06c0-.53,0-1.06,0-1.57,1.22-.38,2.46-.79,3.7-1.21C402.65,419.25,402.72,419.84,402.78,420.26Zm-13.28-16,.62.25-1,.32.41-.57Zm1.36,1.75a28.45,28.45,0,0,0-1.55,3c-1.13.39-2.2.76-3.2,1.09a29,29,0,0,1,1.58-3.15Zm11,6.58-2.65.85c.08-.76.18-1.48.29-2.15,1-.38,2-.78,3.05-1.19-.06.8-.1,1.56-.12,2.3Zm-13.68,8.26c.07-.57.16-1.26.29-2l2.73-.79c-.12.73-.22,1.41-.29,2C389.92,420.34,389,420.61,388.14,420.85Zm-7.4-1.81c-.14-.25-.26-.45-.36-.64l1.78-.67c0,.3-.07.61-.1.92Zm-.54-5.19c.95-.28,1.95-.6,3-.94-.26.88-.49,1.81-.68,2.77l-2.49,1c0-.5.08-1.19.16-2.25C380.16,414.23,380.18,414,380.2,413.85Zm3.91,3.14,3-1.13c-.09.44-.18.89-.26,1.35l-2.9.87C384,417.73,384,417.37,384.11,417Zm5.07-1.91L392,414c-.16.6-.3,1.18-.43,1.75l-2.75.83C388.94,416.12,389.05,415.61,389.18,415.08Zm4.23,2.3,3.68-1.1c-.06.64-.1,1.24-.14,1.79l-3.77,1.25C393.24,418.65,393.32,418,393.41,417.38Zm.41-2.28c.14-.67.29-1.3.45-1.9l2.64-1,.66-.24c-.09.7-.18,1.37-.25,2Zm10.41-5.69c1.19-.48,2.33-1,3.4-1.41,0,.78.08,1.53.15,2.26-1.18.52-2.44,1.05-3.73,1.53C404.08,411,404.14,410.15,404.23,409.41Zm5-5.28,1.65.37-1.67.73C409.24,404.83,409.25,404.46,409.26,404.13Zm-1.35-1.22a23.57,23.57,0,0,0-.28,3c-.94.4-2,.83-3.05,1.27a21.47,21.47,0,0,1,.81-3h0c1-.46,1.82-.9,2.52-1.29Zm-5.19,5c-.92.37-1.87.74-2.84,1.11a31.17,31.17,0,0,1,1-3.54,16.62,16.62,0,0,0,2.31-.48C403,406,402.83,407,402.72,407.93Zm-4.81,1.86h0L395,410.89c.36-1.08.73-2,1.06-2.77l2.38-1C398.22,408.05,398.06,408.93,397.91,409.79Zm-5.22,2-2.91,1.11c.27-.89.57-1.78.91-2.66l3-1.16C393.32,410,393,410.86,392.69,411.75Zm-5.06,1.94-3.1,1.2c.21-.87.46-1.77.78-2.72,1.07-.37,2.13-.76,3.18-1.14C388.19,411.84,387.9,412.73,387.63,413.69Zm-3.78-2.84c-1.68.54-2.92.92-3.45,1.08.07-.52.14-1.07.21-1.62.26-.43.59-.95,1-1.5l3.61-1.09A33.88,33.88,0,0,0,383.85,410.85Zm-.13,10.59h0c0-.33,0-.76,0-1.27l2.81-.8q-.1.94-.15,1.95c-.57.15-1.11.29-1.62.4h0C384.42,421.64,384.06,421.54,383.72,421.44Zm9.3.09c1.18-.34,2.47-.73,3.81-1.14,0,.51,0,.94,0,1.27h0c-1.31.18-2.59.32-3.81.4Zm5.87-4.12c0-.58.05-1.15.08-1.7,1.38-.43,2.56-.81,3.37-1.1h0c0,.56,0,1.09,0,1.59Zm5.18-3.46c1.3-.53,2.66-1.14,4-1.74.1.66.21,1.28.32,1.85l-4.14,1.49C404.15,415,404.1,414.47,404.07,414Zm9.14-6.28c-.77.4-2.09,1.06-3.71,1.81-.09-.75-.16-1.49-.2-2.19,1.86-.79,3.33-1.44,4.11-1.79h0C413.38,406.05,413.31,406.81,413.21,407.67Zm-1.34-5.85c.41.09.92.88,1.25,1.7h0l-.23.1-3.56-.87c0-.27,0-.47.05-.58A3.85,3.85,0,0,1,411.87,401.82Zm-13.63,3.87-1.31.52.3-.52h1Zm-2.88-.1c-.28.51-.55,1-.8,1.54-1,.38-2,.75-3,1.1a18.87,18.87,0,0,1,1.7-2.87h0c.4.06.8.12,1.23.16Zm-7.62-2.29h0c-.32.45-.88,1.29-1.52,2.42l-3.17,1a31.38,31.38,0,0,1,3.66-4.2l.06.05A7.64,7.64,0,0,0,387.74,403.3Zm-2.6-2.24h0c-.88,1-2.5,3-3.89,4.79h0c.27-1.8.48-3.12.48-3.12l2-2.9S384.36,400.37,385.14,401.06ZM405,419.38c-.15-.52-.27-1-.38-1.54,1.48-.52,2.92-1.07,4.28-1.62.07.27.13.51.19.71A21.23,21.23,0,0,1,405,419.38Z"/></g></g></g></svg>